<?xml version="1.0" encoding="utf-8"?>
<!-- Generator: Adobe Illustrator 25.2.0, SVG Export Plug-In . SVG Version: 6.00 Build 0)  -->
<svg version="1.1" id="Layer_1" xmlns="http://www.w3.org/2000/svg" xmlns:xlink="http://www.w3.org/1999/xlink"
	 viewBox="0 0 486 129" style="enable-background:new 0 0 486 129;" xml:space="preserve">
<style type="text/css">
	.st0{fill:#2C2255;}
	.st1{fill:#F7941E;}
	.st2{fill:url(#SVGID_1_);}
	.st3{fill:url(#SVGID_2_);}
	.st4{fill:url(#SVGID_3_);}
	.st5{fill:#FFFFFF;}
	.st6{font-family:'OpenSans';}
	.st7{font-size:16px;}
</style>
<path class="st0" d="M38.1,76.9H21.4c2.2,7.6,6.3,14.4,12.4,20.4c9.6,9.6,21.1,14.4,34.7,14.4c2.7,0,5.3-0.2,7.9-0.6
	c10.2-1.5,19.1-6.1,26.7-13.8c6.1-6,10.2-12.8,12.4-20.4h-6.8h-9.9H38.1z"/>
<g>
	<path class="st0" d="M28.9,54.2h-8.7c-0.3,1.9-0.5,3.9-0.6,5.9H30h5.2h75.3h6.9c-0.1-2-0.3-4-0.6-5.9"/>
	<path class="st0" d="M19.5,65.6c0.1,2,0.3,4,0.6,5.9h9.1h6.9h73.6h6.8c0.3-1.9,0.5-3.9,0.6-5.9"/>
</g>
<path class="st0" d="M115.4,48.7c-2.2-7.6-6.4-14.5-12.4-20.5C95.3,20.6,86.5,16,76.3,14.5c-2.6-0.4-5.2-0.6-7.9-0.6
	c-13.5,0-25,4.8-34.7,14.3c-6,6.1-10.1,12.9-12.4,20.5"/>
<g>
	<path class="st1" d="M16.6,62.8c0-25.8,19.4-47.3,44.6-51c-0.6,0-1.3,0-1.9,0C31,11.7,8.1,34.6,8.1,62.8s23,51.1,51.3,51.1
		c0.6,0,1.3,0,1.9,0C36,110.1,16.6,88.7,16.6,62.8z"/>
</g>
</svg>
